<mxfile host="app.diagrams.net" modified="2022-07-03T15:24:31.842Z" agent="5.0 (Macintosh; Intel Mac OS X 10_15_7) AppleWebKit/537.36 (KHTML, like Gecko) Chrome/103.0.0.0 Safari/537.36" etag="Kq6BxHJHJxa7a1CpmPx1" version="20.0.4" type="github">
  <diagram id="JUBnFEGR7GSvpcB01CxE" name="Page-1">
    <mxGraphModel dx="1298" dy="834" grid="1" gridSize="10" guides="1" tooltips="1" connect="1" arrows="1" fold="1" page="1" pageScale="1" pageWidth="3300" pageHeight="4681" math="0" shadow="0">
      <root>
        <mxCell id="0" />
        <mxCell id="1" parent="0" />
        <mxCell id="AdvP_TB9_uKRTwVP-Am5-67" value="" style="rounded=0;whiteSpace=wrap;html=1;dashed=1;" vertex="1" parent="1">
          <mxGeometry x="624" y="160" width="466" height="350" as="geometry" />
        </mxCell>
        <mxCell id="AdvP_TB9_uKRTwVP-Am5-102" style="edgeStyle=orthogonalEdgeStyle;curved=1;rounded=1;orthogonalLoop=1;jettySize=auto;html=1;exitX=0;exitY=0.5;exitDx=0;exitDy=0;entryX=0;entryY=0.5;entryDx=0;entryDy=0;dashed=1;fillColor=#e1d5e7;strokeColor=#9673a6;" edge="1" parent="1" source="AdvP_TB9_uKRTwVP-Am5-33" target="AdvP_TB9_uKRTwVP-Am5-68">
          <mxGeometry relative="1" as="geometry" />
        </mxCell>
        <mxCell id="AdvP_TB9_uKRTwVP-Am5-108" value="room" style="edgeLabel;html=1;align=center;verticalAlign=middle;resizable=0;points=[];" vertex="1" connectable="0" parent="AdvP_TB9_uKRTwVP-Am5-102">
          <mxGeometry x="0.17" y="31" relative="1" as="geometry">
            <mxPoint x="9" y="14" as="offset" />
          </mxGeometry>
        </mxCell>
        <mxCell id="AdvP_TB9_uKRTwVP-Am5-33" value="" style="rounded=1;whiteSpace=wrap;html=1;fillColor=#dae8fc;strokeColor=#6c8ebf;" vertex="1" parent="1">
          <mxGeometry x="160" y="435" width="420" height="55" as="geometry" />
        </mxCell>
        <mxCell id="AdvP_TB9_uKRTwVP-Am5-101" style="edgeStyle=orthogonalEdgeStyle;curved=1;rounded=1;orthogonalLoop=1;jettySize=auto;html=1;exitX=0;exitY=0.5;exitDx=0;exitDy=0;entryX=0;entryY=0.75;entryDx=0;entryDy=0;fillColor=#d5e8d4;strokeColor=#82b366;" edge="1" parent="1" source="AdvP_TB9_uKRTwVP-Am5-32" target="AdvP_TB9_uKRTwVP-Am5-69">
          <mxGeometry relative="1" as="geometry" />
        </mxCell>
        <mxCell id="AdvP_TB9_uKRTwVP-Am5-107" value="room type" style="edgeLabel;html=1;align=center;verticalAlign=middle;resizable=0;points=[];" vertex="1" connectable="0" parent="AdvP_TB9_uKRTwVP-Am5-101">
          <mxGeometry x="0.5518" y="42" relative="1" as="geometry">
            <mxPoint x="12" as="offset" />
          </mxGeometry>
        </mxCell>
        <mxCell id="AdvP_TB9_uKRTwVP-Am5-32" value="" style="rounded=1;whiteSpace=wrap;html=1;fillColor=#d5e8d4;strokeColor=#82b366;" vertex="1" parent="1">
          <mxGeometry x="160" y="345" width="420" height="55" as="geometry" />
        </mxCell>
        <mxCell id="AdvP_TB9_uKRTwVP-Am5-100" style="edgeStyle=orthogonalEdgeStyle;orthogonalLoop=1;jettySize=auto;html=1;exitX=0;exitY=0.5;exitDx=0;exitDy=0;entryX=0;entryY=0.5;entryDx=0;entryDy=0;rounded=1;curved=1;fillColor=#fff2cc;strokeColor=#d6b656;" edge="1" parent="1" source="AdvP_TB9_uKRTwVP-Am5-31" target="AdvP_TB9_uKRTwVP-Am5-70">
          <mxGeometry relative="1" as="geometry">
            <Array as="points">
              <mxPoint x="130" y="293" />
              <mxPoint x="130" y="630" />
            </Array>
          </mxGeometry>
        </mxCell>
        <mxCell id="AdvP_TB9_uKRTwVP-Am5-106" value="hotel" style="edgeLabel;html=1;align=center;verticalAlign=middle;resizable=0;points=[];" vertex="1" connectable="0" parent="AdvP_TB9_uKRTwVP-Am5-100">
          <mxGeometry x="0.5967" y="23" relative="1" as="geometry">
            <mxPoint as="offset" />
          </mxGeometry>
        </mxCell>
        <mxCell id="AdvP_TB9_uKRTwVP-Am5-31" value="" style="rounded=1;whiteSpace=wrap;html=1;fillColor=#fff2cc;strokeColor=#d6b656;" vertex="1" parent="1">
          <mxGeometry x="160" y="265" width="420" height="55" as="geometry" />
        </mxCell>
        <mxCell id="AdvP_TB9_uKRTwVP-Am5-34" style="edgeStyle=none;orthogonalLoop=1;jettySize=auto;html=1;exitX=0.5;exitY=1;exitDx=0;exitDy=0;entryX=0.5;entryY=0;entryDx=0;entryDy=0;" edge="1" parent="1" source="AdvP_TB9_uKRTwVP-Am5-1" target="AdvP_TB9_uKRTwVP-Am5-2">
          <mxGeometry relative="1" as="geometry" />
        </mxCell>
        <mxCell id="AdvP_TB9_uKRTwVP-Am5-35" style="edgeStyle=none;orthogonalLoop=1;jettySize=auto;html=1;exitX=0.5;exitY=1;exitDx=0;exitDy=0;entryX=0.5;entryY=0;entryDx=0;entryDy=0;" edge="1" parent="1" source="AdvP_TB9_uKRTwVP-Am5-1" target="AdvP_TB9_uKRTwVP-Am5-3">
          <mxGeometry relative="1" as="geometry" />
        </mxCell>
        <mxCell id="AdvP_TB9_uKRTwVP-Am5-36" style="edgeStyle=none;orthogonalLoop=1;jettySize=auto;html=1;exitX=0.5;exitY=1;exitDx=0;exitDy=0;entryX=0.5;entryY=0;entryDx=0;entryDy=0;" edge="1" parent="1" source="AdvP_TB9_uKRTwVP-Am5-1" target="AdvP_TB9_uKRTwVP-Am5-4">
          <mxGeometry relative="1" as="geometry" />
        </mxCell>
        <mxCell id="AdvP_TB9_uKRTwVP-Am5-1" value="Supplier(Agoda)" style="rounded=0;whiteSpace=wrap;html=1;fillColor=#f5f5f5;fontColor=#333333;strokeColor=#666666;" vertex="1" parent="1">
          <mxGeometry x="160" y="190" width="410" height="40" as="geometry" />
        </mxCell>
        <mxCell id="AdvP_TB9_uKRTwVP-Am5-19" style="edgeStyle=orthogonalEdgeStyle;rounded=1;orthogonalLoop=1;jettySize=auto;html=1;exitX=0.5;exitY=1;exitDx=0;exitDy=0;entryX=0.5;entryY=0;entryDx=0;entryDy=0;" edge="1" parent="1" source="AdvP_TB9_uKRTwVP-Am5-2" target="AdvP_TB9_uKRTwVP-Am5-7">
          <mxGeometry relative="1" as="geometry" />
        </mxCell>
        <mxCell id="AdvP_TB9_uKRTwVP-Am5-2" value="hotel1" style="rounded=0;whiteSpace=wrap;html=1;" vertex="1" parent="1">
          <mxGeometry x="168" y="280" width="70" height="30" as="geometry" />
        </mxCell>
        <mxCell id="AdvP_TB9_uKRTwVP-Am5-21" style="rounded=1;orthogonalLoop=1;jettySize=auto;html=1;exitX=0.5;exitY=1;exitDx=0;exitDy=0;entryX=0.5;entryY=0;entryDx=0;entryDy=0;" edge="1" parent="1" source="AdvP_TB9_uKRTwVP-Am5-3" target="AdvP_TB9_uKRTwVP-Am5-9">
          <mxGeometry relative="1" as="geometry" />
        </mxCell>
        <mxCell id="AdvP_TB9_uKRTwVP-Am5-22" style="rounded=1;orthogonalLoop=1;jettySize=auto;html=1;exitX=0.5;exitY=1;exitDx=0;exitDy=0;entryX=0.5;entryY=0;entryDx=0;entryDy=0;" edge="1" parent="1" source="AdvP_TB9_uKRTwVP-Am5-3" target="AdvP_TB9_uKRTwVP-Am5-10">
          <mxGeometry relative="1" as="geometry" />
        </mxCell>
        <mxCell id="AdvP_TB9_uKRTwVP-Am5-3" value="hotel2" style="rounded=0;whiteSpace=wrap;html=1;" vertex="1" parent="1">
          <mxGeometry x="319" y="280" width="70" height="30" as="geometry" />
        </mxCell>
        <mxCell id="AdvP_TB9_uKRTwVP-Am5-23" style="edgeStyle=orthogonalEdgeStyle;rounded=1;orthogonalLoop=1;jettySize=auto;html=1;exitX=0.5;exitY=1;exitDx=0;exitDy=0;entryX=0.5;entryY=0;entryDx=0;entryDy=0;" edge="1" parent="1" source="AdvP_TB9_uKRTwVP-Am5-4" target="AdvP_TB9_uKRTwVP-Am5-11">
          <mxGeometry relative="1" as="geometry" />
        </mxCell>
        <mxCell id="AdvP_TB9_uKRTwVP-Am5-4" value="hotel3" style="rounded=0;whiteSpace=wrap;html=1;" vertex="1" parent="1">
          <mxGeometry x="485" y="280" width="72.5" height="30" as="geometry" />
        </mxCell>
        <mxCell id="AdvP_TB9_uKRTwVP-Am5-25" style="rounded=1;orthogonalLoop=1;jettySize=auto;html=1;exitX=0.5;exitY=1;exitDx=0;exitDy=0;entryX=0.5;entryY=0;entryDx=0;entryDy=0;" edge="1" parent="1" source="AdvP_TB9_uKRTwVP-Am5-7" target="AdvP_TB9_uKRTwVP-Am5-12">
          <mxGeometry relative="1" as="geometry" />
        </mxCell>
        <mxCell id="AdvP_TB9_uKRTwVP-Am5-26" style="rounded=1;orthogonalLoop=1;jettySize=auto;html=1;exitX=0.5;exitY=1;exitDx=0;exitDy=0;entryX=0.5;entryY=0;entryDx=0;entryDy=0;" edge="1" parent="1" source="AdvP_TB9_uKRTwVP-Am5-7" target="AdvP_TB9_uKRTwVP-Am5-13">
          <mxGeometry relative="1" as="geometry" />
        </mxCell>
        <mxCell id="AdvP_TB9_uKRTwVP-Am5-7" value="room_type1" style="rounded=0;whiteSpace=wrap;html=1;" vertex="1" parent="1">
          <mxGeometry x="167.5" y="360" width="82.5" height="30" as="geometry" />
        </mxCell>
        <mxCell id="AdvP_TB9_uKRTwVP-Am5-27" style="rounded=1;orthogonalLoop=1;jettySize=auto;html=1;exitX=0.5;exitY=1;exitDx=0;exitDy=0;entryX=0.5;entryY=0;entryDx=0;entryDy=0;" edge="1" parent="1" source="AdvP_TB9_uKRTwVP-Am5-9" target="AdvP_TB9_uKRTwVP-Am5-14">
          <mxGeometry relative="1" as="geometry" />
        </mxCell>
        <mxCell id="AdvP_TB9_uKRTwVP-Am5-9" value="room_type2" style="rounded=0;whiteSpace=wrap;html=1;" vertex="1" parent="1">
          <mxGeometry x="272" y="360" width="82.5" height="30" as="geometry" />
        </mxCell>
        <mxCell id="AdvP_TB9_uKRTwVP-Am5-28" style="orthogonalLoop=1;jettySize=auto;html=1;exitX=0.5;exitY=1;exitDx=0;exitDy=0;entryX=0.5;entryY=0;entryDx=0;entryDy=0;" edge="1" parent="1" source="AdvP_TB9_uKRTwVP-Am5-10" target="AdvP_TB9_uKRTwVP-Am5-15">
          <mxGeometry relative="1" as="geometry" />
        </mxCell>
        <mxCell id="AdvP_TB9_uKRTwVP-Am5-10" value="room_type3" style="rounded=0;whiteSpace=wrap;html=1;" vertex="1" parent="1">
          <mxGeometry x="376" y="360" width="82.5" height="30" as="geometry" />
        </mxCell>
        <mxCell id="AdvP_TB9_uKRTwVP-Am5-29" style="rounded=1;orthogonalLoop=1;jettySize=auto;html=1;exitX=0.5;exitY=1;exitDx=0;exitDy=0;entryX=0.5;entryY=0;entryDx=0;entryDy=0;" edge="1" parent="1" source="AdvP_TB9_uKRTwVP-Am5-11" target="AdvP_TB9_uKRTwVP-Am5-16">
          <mxGeometry relative="1" as="geometry" />
        </mxCell>
        <mxCell id="AdvP_TB9_uKRTwVP-Am5-30" style="rounded=1;orthogonalLoop=1;jettySize=auto;html=1;exitX=0.5;exitY=1;exitDx=0;exitDy=0;entryX=0.75;entryY=0;entryDx=0;entryDy=0;" edge="1" parent="1" source="AdvP_TB9_uKRTwVP-Am5-11" target="AdvP_TB9_uKRTwVP-Am5-18">
          <mxGeometry relative="1" as="geometry" />
        </mxCell>
        <mxCell id="AdvP_TB9_uKRTwVP-Am5-11" value="room_type4" style="rounded=0;whiteSpace=wrap;html=1;" vertex="1" parent="1">
          <mxGeometry x="482.5" y="360" width="77.5" height="30" as="geometry" />
        </mxCell>
        <mxCell id="AdvP_TB9_uKRTwVP-Am5-12" value="rom1" style="rounded=0;whiteSpace=wrap;html=1;" vertex="1" parent="1">
          <mxGeometry x="168" y="450" width="52" height="30" as="geometry" />
        </mxCell>
        <mxCell id="AdvP_TB9_uKRTwVP-Am5-13" value="rom2" style="rounded=0;whiteSpace=wrap;html=1;" vertex="1" parent="1">
          <mxGeometry x="233" y="450" width="60" height="30" as="geometry" />
        </mxCell>
        <mxCell id="AdvP_TB9_uKRTwVP-Am5-14" value="rom3" style="rounded=0;whiteSpace=wrap;html=1;" vertex="1" parent="1">
          <mxGeometry x="302" y="450" width="60" height="30" as="geometry" />
        </mxCell>
        <mxCell id="AdvP_TB9_uKRTwVP-Am5-15" value="rom4" style="rounded=0;whiteSpace=wrap;html=1;" vertex="1" parent="1">
          <mxGeometry x="372" y="450" width="58.5" height="30" as="geometry" />
        </mxCell>
        <mxCell id="AdvP_TB9_uKRTwVP-Am5-16" value="rom5" style="rounded=0;whiteSpace=wrap;html=1;" vertex="1" parent="1">
          <mxGeometry x="441" y="450" width="60" height="30" as="geometry" />
        </mxCell>
        <mxCell id="AdvP_TB9_uKRTwVP-Am5-18" value="rom6" style="rounded=0;whiteSpace=wrap;html=1;" vertex="1" parent="1">
          <mxGeometry x="510" y="450" width="60" height="30" as="geometry" />
        </mxCell>
        <mxCell id="AdvP_TB9_uKRTwVP-Am5-105" style="edgeStyle=orthogonalEdgeStyle;curved=1;rounded=1;orthogonalLoop=1;jettySize=auto;html=1;exitX=1;exitY=0.5;exitDx=0;exitDy=0;entryX=1;entryY=0.5;entryDx=0;entryDy=0;dashed=1;" edge="1" parent="1" source="AdvP_TB9_uKRTwVP-Am5-37" target="AdvP_TB9_uKRTwVP-Am5-68">
          <mxGeometry relative="1" as="geometry" />
        </mxCell>
        <mxCell id="AdvP_TB9_uKRTwVP-Am5-111" value="room" style="edgeLabel;html=1;align=center;verticalAlign=middle;resizable=0;points=[];" vertex="1" connectable="0" parent="AdvP_TB9_uKRTwVP-Am5-105">
          <mxGeometry x="0.513" y="-22" relative="1" as="geometry">
            <mxPoint as="offset" />
          </mxGeometry>
        </mxCell>
        <mxCell id="AdvP_TB9_uKRTwVP-Am5-37" value="" style="rounded=1;whiteSpace=wrap;html=1;fillColor=#dae8fc;strokeColor=#6c8ebf;" vertex="1" parent="1">
          <mxGeometry x="650" y="435" width="420" height="55" as="geometry" />
        </mxCell>
        <mxCell id="AdvP_TB9_uKRTwVP-Am5-104" style="edgeStyle=orthogonalEdgeStyle;curved=1;rounded=1;orthogonalLoop=1;jettySize=auto;html=1;exitX=1;exitY=0.5;exitDx=0;exitDy=0;entryX=1;entryY=0.5;entryDx=0;entryDy=0;dashed=1;fillColor=#d5e8d4;strokeColor=#82b366;" edge="1" parent="1" source="AdvP_TB9_uKRTwVP-Am5-38" target="AdvP_TB9_uKRTwVP-Am5-69">
          <mxGeometry relative="1" as="geometry" />
        </mxCell>
        <mxCell id="AdvP_TB9_uKRTwVP-Am5-110" value="room type" style="edgeLabel;html=1;align=center;verticalAlign=middle;resizable=0;points=[];" vertex="1" connectable="0" parent="AdvP_TB9_uKRTwVP-Am5-104">
          <mxGeometry x="0.5332" y="-21" relative="1" as="geometry">
            <mxPoint x="1" as="offset" />
          </mxGeometry>
        </mxCell>
        <mxCell id="AdvP_TB9_uKRTwVP-Am5-38" value="" style="rounded=1;whiteSpace=wrap;html=1;fillColor=#d5e8d4;strokeColor=#82b366;" vertex="1" parent="1">
          <mxGeometry x="650" y="345" width="420" height="55" as="geometry" />
        </mxCell>
        <mxCell id="AdvP_TB9_uKRTwVP-Am5-103" style="edgeStyle=orthogonalEdgeStyle;curved=1;rounded=1;orthogonalLoop=1;jettySize=auto;html=1;exitX=1;exitY=0.5;exitDx=0;exitDy=0;entryX=1;entryY=0.5;entryDx=0;entryDy=0;dashed=1;fillColor=#fff2cc;strokeColor=#d6b656;" edge="1" parent="1" source="AdvP_TB9_uKRTwVP-Am5-39" target="AdvP_TB9_uKRTwVP-Am5-70">
          <mxGeometry relative="1" as="geometry" />
        </mxCell>
        <mxCell id="AdvP_TB9_uKRTwVP-Am5-109" value="hotel" style="edgeLabel;html=1;align=center;verticalAlign=middle;resizable=0;points=[];" vertex="1" connectable="0" parent="AdvP_TB9_uKRTwVP-Am5-103">
          <mxGeometry x="0.5466" y="-19" relative="1" as="geometry">
            <mxPoint x="1" as="offset" />
          </mxGeometry>
        </mxCell>
        <mxCell id="AdvP_TB9_uKRTwVP-Am5-39" value="" style="rounded=1;whiteSpace=wrap;html=1;fillColor=#fff2cc;strokeColor=#d6b656;" vertex="1" parent="1">
          <mxGeometry x="650" y="265" width="420" height="55" as="geometry" />
        </mxCell>
        <mxCell id="AdvP_TB9_uKRTwVP-Am5-40" style="edgeStyle=none;orthogonalLoop=1;jettySize=auto;html=1;exitX=0.5;exitY=1;exitDx=0;exitDy=0;entryX=0.5;entryY=0;entryDx=0;entryDy=0;" edge="1" parent="1" source="AdvP_TB9_uKRTwVP-Am5-43" target="AdvP_TB9_uKRTwVP-Am5-45">
          <mxGeometry relative="1" as="geometry" />
        </mxCell>
        <mxCell id="AdvP_TB9_uKRTwVP-Am5-41" style="edgeStyle=none;orthogonalLoop=1;jettySize=auto;html=1;exitX=0.5;exitY=1;exitDx=0;exitDy=0;entryX=0.5;entryY=0;entryDx=0;entryDy=0;" edge="1" parent="1" source="AdvP_TB9_uKRTwVP-Am5-43" target="AdvP_TB9_uKRTwVP-Am5-48">
          <mxGeometry relative="1" as="geometry" />
        </mxCell>
        <mxCell id="AdvP_TB9_uKRTwVP-Am5-42" style="edgeStyle=none;orthogonalLoop=1;jettySize=auto;html=1;exitX=0.5;exitY=1;exitDx=0;exitDy=0;entryX=0.5;entryY=0;entryDx=0;entryDy=0;" edge="1" parent="1" source="AdvP_TB9_uKRTwVP-Am5-43" target="AdvP_TB9_uKRTwVP-Am5-50">
          <mxGeometry relative="1" as="geometry" />
        </mxCell>
        <mxCell id="AdvP_TB9_uKRTwVP-Am5-43" value="SupplierX" style="rounded=0;whiteSpace=wrap;html=1;fillColor=#f5f5f5;fontColor=#333333;strokeColor=#666666;" vertex="1" parent="1">
          <mxGeometry x="650" y="190" width="410" height="40" as="geometry" />
        </mxCell>
        <mxCell id="AdvP_TB9_uKRTwVP-Am5-44" style="rounded=1;orthogonalLoop=1;jettySize=auto;html=1;exitX=0.5;exitY=1;exitDx=0;exitDy=0;entryX=0.5;entryY=0;entryDx=0;entryDy=0;" edge="1" parent="1" source="AdvP_TB9_uKRTwVP-Am5-45" target="AdvP_TB9_uKRTwVP-Am5-53">
          <mxGeometry relative="1" as="geometry" />
        </mxCell>
        <mxCell id="AdvP_TB9_uKRTwVP-Am5-45" value="hotelA" style="rounded=0;whiteSpace=wrap;html=1;" vertex="1" parent="1">
          <mxGeometry x="658" y="280" width="70" height="30" as="geometry" />
        </mxCell>
        <mxCell id="AdvP_TB9_uKRTwVP-Am5-46" style="rounded=1;orthogonalLoop=1;jettySize=auto;html=1;exitX=0.5;exitY=1;exitDx=0;exitDy=0;entryX=0.5;entryY=0;entryDx=0;entryDy=0;" edge="1" parent="1" source="AdvP_TB9_uKRTwVP-Am5-48" target="AdvP_TB9_uKRTwVP-Am5-55">
          <mxGeometry relative="1" as="geometry" />
        </mxCell>
        <mxCell id="AdvP_TB9_uKRTwVP-Am5-47" style="rounded=1;orthogonalLoop=1;jettySize=auto;html=1;exitX=0.5;exitY=1;exitDx=0;exitDy=0;entryX=0.5;entryY=0;entryDx=0;entryDy=0;" edge="1" parent="1" source="AdvP_TB9_uKRTwVP-Am5-48" target="AdvP_TB9_uKRTwVP-Am5-57">
          <mxGeometry relative="1" as="geometry" />
        </mxCell>
        <mxCell id="AdvP_TB9_uKRTwVP-Am5-48" value="hotelB" style="rounded=0;whiteSpace=wrap;html=1;" vertex="1" parent="1">
          <mxGeometry x="809" y="280" width="70" height="30" as="geometry" />
        </mxCell>
        <mxCell id="AdvP_TB9_uKRTwVP-Am5-49" style="edgeStyle=orthogonalEdgeStyle;rounded=1;orthogonalLoop=1;jettySize=auto;html=1;exitX=0.5;exitY=1;exitDx=0;exitDy=0;entryX=0.5;entryY=0;entryDx=0;entryDy=0;" edge="1" parent="1" source="AdvP_TB9_uKRTwVP-Am5-50" target="AdvP_TB9_uKRTwVP-Am5-60">
          <mxGeometry relative="1" as="geometry" />
        </mxCell>
        <mxCell id="AdvP_TB9_uKRTwVP-Am5-50" value="hotelC" style="rounded=0;whiteSpace=wrap;html=1;" vertex="1" parent="1">
          <mxGeometry x="975" y="280" width="72.5" height="30" as="geometry" />
        </mxCell>
        <mxCell id="AdvP_TB9_uKRTwVP-Am5-51" style="rounded=1;orthogonalLoop=1;jettySize=auto;html=1;exitX=0.5;exitY=1;exitDx=0;exitDy=0;entryX=0.5;entryY=0;entryDx=0;entryDy=0;" edge="1" parent="1" source="AdvP_TB9_uKRTwVP-Am5-53" target="AdvP_TB9_uKRTwVP-Am5-61">
          <mxGeometry relative="1" as="geometry" />
        </mxCell>
        <mxCell id="AdvP_TB9_uKRTwVP-Am5-52" style="rounded=1;orthogonalLoop=1;jettySize=auto;html=1;exitX=0.5;exitY=1;exitDx=0;exitDy=0;entryX=0.5;entryY=0;entryDx=0;entryDy=0;" edge="1" parent="1" source="AdvP_TB9_uKRTwVP-Am5-53" target="AdvP_TB9_uKRTwVP-Am5-62">
          <mxGeometry relative="1" as="geometry" />
        </mxCell>
        <mxCell id="AdvP_TB9_uKRTwVP-Am5-53" value="room_typeA" style="rounded=0;whiteSpace=wrap;html=1;" vertex="1" parent="1">
          <mxGeometry x="657.5" y="360" width="82.5" height="30" as="geometry" />
        </mxCell>
        <mxCell id="AdvP_TB9_uKRTwVP-Am5-54" style="rounded=1;orthogonalLoop=1;jettySize=auto;html=1;exitX=0.5;exitY=1;exitDx=0;exitDy=0;entryX=0.5;entryY=0;entryDx=0;entryDy=0;" edge="1" parent="1" source="AdvP_TB9_uKRTwVP-Am5-55" target="AdvP_TB9_uKRTwVP-Am5-63">
          <mxGeometry relative="1" as="geometry" />
        </mxCell>
        <mxCell id="AdvP_TB9_uKRTwVP-Am5-55" value="room_typeB" style="rounded=0;whiteSpace=wrap;html=1;" vertex="1" parent="1">
          <mxGeometry x="762" y="360" width="82.5" height="30" as="geometry" />
        </mxCell>
        <mxCell id="AdvP_TB9_uKRTwVP-Am5-56" style="orthogonalLoop=1;jettySize=auto;html=1;exitX=0.5;exitY=1;exitDx=0;exitDy=0;entryX=0.5;entryY=0;entryDx=0;entryDy=0;" edge="1" parent="1" source="AdvP_TB9_uKRTwVP-Am5-57" target="AdvP_TB9_uKRTwVP-Am5-64">
          <mxGeometry relative="1" as="geometry" />
        </mxCell>
        <mxCell id="AdvP_TB9_uKRTwVP-Am5-57" value="room_typeC" style="rounded=0;whiteSpace=wrap;html=1;" vertex="1" parent="1">
          <mxGeometry x="866" y="360" width="82.5" height="30" as="geometry" />
        </mxCell>
        <mxCell id="AdvP_TB9_uKRTwVP-Am5-58" style="rounded=1;orthogonalLoop=1;jettySize=auto;html=1;exitX=0.5;exitY=1;exitDx=0;exitDy=0;entryX=0.5;entryY=0;entryDx=0;entryDy=0;" edge="1" parent="1" source="AdvP_TB9_uKRTwVP-Am5-60" target="AdvP_TB9_uKRTwVP-Am5-65">
          <mxGeometry relative="1" as="geometry" />
        </mxCell>
        <mxCell id="AdvP_TB9_uKRTwVP-Am5-59" style="rounded=1;orthogonalLoop=1;jettySize=auto;html=1;exitX=0.5;exitY=1;exitDx=0;exitDy=0;entryX=0.75;entryY=0;entryDx=0;entryDy=0;" edge="1" parent="1" source="AdvP_TB9_uKRTwVP-Am5-60" target="AdvP_TB9_uKRTwVP-Am5-66">
          <mxGeometry relative="1" as="geometry" />
        </mxCell>
        <mxCell id="AdvP_TB9_uKRTwVP-Am5-60" value="room_typeD" style="rounded=0;whiteSpace=wrap;html=1;" vertex="1" parent="1">
          <mxGeometry x="972.5" y="360" width="77.5" height="30" as="geometry" />
        </mxCell>
        <mxCell id="AdvP_TB9_uKRTwVP-Am5-61" value="romA" style="rounded=0;whiteSpace=wrap;html=1;" vertex="1" parent="1">
          <mxGeometry x="658" y="450" width="52" height="30" as="geometry" />
        </mxCell>
        <mxCell id="AdvP_TB9_uKRTwVP-Am5-62" value="romB" style="rounded=0;whiteSpace=wrap;html=1;" vertex="1" parent="1">
          <mxGeometry x="723" y="450" width="60" height="30" as="geometry" />
        </mxCell>
        <mxCell id="AdvP_TB9_uKRTwVP-Am5-63" value="romC" style="rounded=0;whiteSpace=wrap;html=1;" vertex="1" parent="1">
          <mxGeometry x="792" y="450" width="60" height="30" as="geometry" />
        </mxCell>
        <mxCell id="AdvP_TB9_uKRTwVP-Am5-64" value="romD" style="rounded=0;whiteSpace=wrap;html=1;" vertex="1" parent="1">
          <mxGeometry x="862" y="450" width="58.5" height="30" as="geometry" />
        </mxCell>
        <mxCell id="AdvP_TB9_uKRTwVP-Am5-65" value="romE" style="rounded=0;whiteSpace=wrap;html=1;" vertex="1" parent="1">
          <mxGeometry x="931" y="450" width="60" height="30" as="geometry" />
        </mxCell>
        <mxCell id="AdvP_TB9_uKRTwVP-Am5-66" value="romF" style="rounded=0;whiteSpace=wrap;html=1;" vertex="1" parent="1">
          <mxGeometry x="1000" y="450" width="60" height="30" as="geometry" />
        </mxCell>
        <mxCell id="AdvP_TB9_uKRTwVP-Am5-68" value="" style="rounded=1;whiteSpace=wrap;html=1;fillColor=#dae8fc;strokeColor=#6c8ebf;" vertex="1" parent="1">
          <mxGeometry x="303" y="770" width="549" height="60" as="geometry" />
        </mxCell>
        <mxCell id="AdvP_TB9_uKRTwVP-Am5-69" value="" style="rounded=1;whiteSpace=wrap;html=1;fillColor=#d5e8d4;strokeColor=#82b366;" vertex="1" parent="1">
          <mxGeometry x="303" y="680" width="549" height="60" as="geometry" />
        </mxCell>
        <mxCell id="AdvP_TB9_uKRTwVP-Am5-70" value="" style="rounded=1;whiteSpace=wrap;html=1;fillColor=#fff2cc;strokeColor=#d6b656;" vertex="1" parent="1">
          <mxGeometry x="303" y="600" width="549" height="60" as="geometry" />
        </mxCell>
        <mxCell id="AdvP_TB9_uKRTwVP-Am5-71" style="edgeStyle=orthogonalEdgeStyle;rounded=1;orthogonalLoop=1;jettySize=auto;html=1;exitX=0.5;exitY=1;exitDx=0;exitDy=0;entryX=0.5;entryY=0;entryDx=0;entryDy=0;" edge="1" parent="1" source="AdvP_TB9_uKRTwVP-Am5-72" target="AdvP_TB9_uKRTwVP-Am5-80">
          <mxGeometry relative="1" as="geometry" />
        </mxCell>
        <mxCell id="AdvP_TB9_uKRTwVP-Am5-72" value="hotel1" style="rounded=0;whiteSpace=wrap;html=1;" vertex="1" parent="1">
          <mxGeometry x="316.75" y="615" width="70" height="30" as="geometry" />
        </mxCell>
        <mxCell id="AdvP_TB9_uKRTwVP-Am5-73" style="rounded=1;orthogonalLoop=1;jettySize=auto;html=1;exitX=0.5;exitY=1;exitDx=0;exitDy=0;entryX=0.5;entryY=0;entryDx=0;entryDy=0;" edge="1" parent="1" source="AdvP_TB9_uKRTwVP-Am5-75" target="AdvP_TB9_uKRTwVP-Am5-82">
          <mxGeometry relative="1" as="geometry" />
        </mxCell>
        <mxCell id="AdvP_TB9_uKRTwVP-Am5-74" style="rounded=1;orthogonalLoop=1;jettySize=auto;html=1;exitX=0.5;exitY=1;exitDx=0;exitDy=0;entryX=0.5;entryY=0;entryDx=0;entryDy=0;" edge="1" parent="1" source="AdvP_TB9_uKRTwVP-Am5-75" target="AdvP_TB9_uKRTwVP-Am5-84">
          <mxGeometry relative="1" as="geometry" />
        </mxCell>
        <mxCell id="AdvP_TB9_uKRTwVP-Am5-75" value="hotel2" style="rounded=0;whiteSpace=wrap;html=1;" vertex="1" parent="1">
          <mxGeometry x="462" y="615" width="70" height="30" as="geometry" />
        </mxCell>
        <mxCell id="AdvP_TB9_uKRTwVP-Am5-76" style="edgeStyle=orthogonalEdgeStyle;rounded=1;orthogonalLoop=1;jettySize=auto;html=1;exitX=0.5;exitY=1;exitDx=0;exitDy=0;entryX=0.5;entryY=0;entryDx=0;entryDy=0;" edge="1" parent="1" source="AdvP_TB9_uKRTwVP-Am5-77" target="AdvP_TB9_uKRTwVP-Am5-87">
          <mxGeometry relative="1" as="geometry" />
        </mxCell>
        <mxCell id="AdvP_TB9_uKRTwVP-Am5-77" value="hotel3" style="rounded=0;whiteSpace=wrap;html=1;" vertex="1" parent="1">
          <mxGeometry x="628" y="615" width="72.5" height="30" as="geometry" />
        </mxCell>
        <mxCell id="AdvP_TB9_uKRTwVP-Am5-78" style="rounded=1;orthogonalLoop=1;jettySize=auto;html=1;exitX=0.5;exitY=1;exitDx=0;exitDy=0;entryX=0.5;entryY=0;entryDx=0;entryDy=0;" edge="1" parent="1" source="AdvP_TB9_uKRTwVP-Am5-80" target="AdvP_TB9_uKRTwVP-Am5-88">
          <mxGeometry relative="1" as="geometry" />
        </mxCell>
        <mxCell id="AdvP_TB9_uKRTwVP-Am5-79" style="rounded=1;orthogonalLoop=1;jettySize=auto;html=1;exitX=0.5;exitY=1;exitDx=0;exitDy=0;entryX=0.5;entryY=0;entryDx=0;entryDy=0;" edge="1" parent="1" source="AdvP_TB9_uKRTwVP-Am5-80" target="AdvP_TB9_uKRTwVP-Am5-89">
          <mxGeometry relative="1" as="geometry" />
        </mxCell>
        <mxCell id="AdvP_TB9_uKRTwVP-Am5-80" value="room_type1" style="rounded=0;whiteSpace=wrap;html=1;" vertex="1" parent="1">
          <mxGeometry x="310.5" y="695" width="82.5" height="30" as="geometry" />
        </mxCell>
        <mxCell id="AdvP_TB9_uKRTwVP-Am5-81" style="rounded=1;orthogonalLoop=1;jettySize=auto;html=1;exitX=0.5;exitY=1;exitDx=0;exitDy=0;entryX=0.5;entryY=0;entryDx=0;entryDy=0;" edge="1" parent="1" source="AdvP_TB9_uKRTwVP-Am5-82" target="AdvP_TB9_uKRTwVP-Am5-90">
          <mxGeometry relative="1" as="geometry" />
        </mxCell>
        <mxCell id="AdvP_TB9_uKRTwVP-Am5-82" value="room_type2" style="rounded=0;whiteSpace=wrap;html=1;" vertex="1" parent="1">
          <mxGeometry x="415" y="695" width="82.5" height="30" as="geometry" />
        </mxCell>
        <mxCell id="AdvP_TB9_uKRTwVP-Am5-83" style="orthogonalLoop=1;jettySize=auto;html=1;exitX=0.5;exitY=1;exitDx=0;exitDy=0;entryX=0.5;entryY=0;entryDx=0;entryDy=0;" edge="1" parent="1" source="AdvP_TB9_uKRTwVP-Am5-84" target="AdvP_TB9_uKRTwVP-Am5-91">
          <mxGeometry relative="1" as="geometry" />
        </mxCell>
        <mxCell id="AdvP_TB9_uKRTwVP-Am5-84" value="room_type3" style="rounded=0;whiteSpace=wrap;html=1;" vertex="1" parent="1">
          <mxGeometry x="519" y="695" width="82.5" height="30" as="geometry" />
        </mxCell>
        <mxCell id="AdvP_TB9_uKRTwVP-Am5-85" style="rounded=1;orthogonalLoop=1;jettySize=auto;html=1;exitX=0.5;exitY=1;exitDx=0;exitDy=0;entryX=0.5;entryY=0;entryDx=0;entryDy=0;" edge="1" parent="1" source="AdvP_TB9_uKRTwVP-Am5-87" target="AdvP_TB9_uKRTwVP-Am5-92">
          <mxGeometry relative="1" as="geometry" />
        </mxCell>
        <mxCell id="AdvP_TB9_uKRTwVP-Am5-86" style="rounded=1;orthogonalLoop=1;jettySize=auto;html=1;exitX=0.5;exitY=1;exitDx=0;exitDy=0;entryX=0.75;entryY=0;entryDx=0;entryDy=0;" edge="1" parent="1" source="AdvP_TB9_uKRTwVP-Am5-87" target="AdvP_TB9_uKRTwVP-Am5-93">
          <mxGeometry relative="1" as="geometry" />
        </mxCell>
        <mxCell id="AdvP_TB9_uKRTwVP-Am5-87" value="room_type4" style="rounded=0;whiteSpace=wrap;html=1;" vertex="1" parent="1">
          <mxGeometry x="625.5" y="695" width="77.5" height="30" as="geometry" />
        </mxCell>
        <mxCell id="AdvP_TB9_uKRTwVP-Am5-88" value="rom1" style="rounded=0;whiteSpace=wrap;html=1;" vertex="1" parent="1">
          <mxGeometry x="311" y="785" width="52" height="30" as="geometry" />
        </mxCell>
        <mxCell id="AdvP_TB9_uKRTwVP-Am5-89" value="rom2" style="rounded=0;whiteSpace=wrap;html=1;" vertex="1" parent="1">
          <mxGeometry x="376" y="785" width="60" height="30" as="geometry" />
        </mxCell>
        <mxCell id="AdvP_TB9_uKRTwVP-Am5-90" value="rom3" style="rounded=0;whiteSpace=wrap;html=1;" vertex="1" parent="1">
          <mxGeometry x="445" y="785" width="60" height="30" as="geometry" />
        </mxCell>
        <mxCell id="AdvP_TB9_uKRTwVP-Am5-91" value="rom4" style="rounded=0;whiteSpace=wrap;html=1;" vertex="1" parent="1">
          <mxGeometry x="515" y="785" width="58.5" height="30" as="geometry" />
        </mxCell>
        <mxCell id="AdvP_TB9_uKRTwVP-Am5-92" value="rom5" style="rounded=0;whiteSpace=wrap;html=1;" vertex="1" parent="1">
          <mxGeometry x="584" y="785" width="60" height="30" as="geometry" />
        </mxCell>
        <mxCell id="AdvP_TB9_uKRTwVP-Am5-93" value="rom6" style="rounded=0;whiteSpace=wrap;html=1;" vertex="1" parent="1">
          <mxGeometry x="666" y="785" width="60" height="30" as="geometry" />
        </mxCell>
        <mxCell id="AdvP_TB9_uKRTwVP-Am5-97" style="edgeStyle=none;orthogonalLoop=1;jettySize=auto;html=1;exitX=0.5;exitY=1;exitDx=0;exitDy=0;entryX=0.5;entryY=0;entryDx=0;entryDy=0;" edge="1" parent="1" source="AdvP_TB9_uKRTwVP-Am5-94" target="AdvP_TB9_uKRTwVP-Am5-95">
          <mxGeometry relative="1" as="geometry" />
        </mxCell>
        <mxCell id="AdvP_TB9_uKRTwVP-Am5-94" value="hotel4" style="rounded=0;whiteSpace=wrap;html=1;" vertex="1" parent="1">
          <mxGeometry x="752" y="615" width="72.5" height="30" as="geometry" />
        </mxCell>
        <mxCell id="AdvP_TB9_uKRTwVP-Am5-98" style="edgeStyle=none;orthogonalLoop=1;jettySize=auto;html=1;exitX=0.5;exitY=1;exitDx=0;exitDy=0;entryX=0.5;entryY=0;entryDx=0;entryDy=0;" edge="1" parent="1" source="AdvP_TB9_uKRTwVP-Am5-95" target="AdvP_TB9_uKRTwVP-Am5-96">
          <mxGeometry relative="1" as="geometry" />
        </mxCell>
        <mxCell id="AdvP_TB9_uKRTwVP-Am5-95" value="room_type5" style="rounded=0;whiteSpace=wrap;html=1;" vertex="1" parent="1">
          <mxGeometry x="749.5" y="695" width="77.5" height="30" as="geometry" />
        </mxCell>
        <mxCell id="AdvP_TB9_uKRTwVP-Am5-96" value="rom7" style="rounded=0;whiteSpace=wrap;html=1;" vertex="1" parent="1">
          <mxGeometry x="758.25" y="785" width="60" height="30" as="geometry" />
        </mxCell>
        <mxCell id="AdvP_TB9_uKRTwVP-Am5-99" style="edgeStyle=none;orthogonalLoop=1;jettySize=auto;html=1;exitX=0.75;exitY=0;exitDx=0;exitDy=0;" edge="1" parent="1" source="AdvP_TB9_uKRTwVP-Am5-72" target="AdvP_TB9_uKRTwVP-Am5-72">
          <mxGeometry relative="1" as="geometry" />
        </mxCell>
      </root>
    </mxGraphModel>
  </diagram>
</mxfile>
